<?xml version="1.0" encoding="utf-8"?>
<!-- Generator: Adobe Illustrator 22.0.1, SVG Export Plug-In . SVG Version: 6.00 Build 0)  -->
<svg version="1.1" id="Layer_1" xmlns="http://www.w3.org/2000/svg" xmlns:xlink="http://www.w3.org/1999/xlink" x="0px" y="0px"
	 viewBox="0 0 512 512" style="enable-background:new 0 0 512 512;" xml:space="preserve">
<style type="text/css">
	.st0{fill:#FFFFFF;}
</style>
<path class="st0" d="M255-1C113.6-1-1,113.6-1,255s114.6,256,256,256s256-114.6,256-256C510.8,113.7,396.3-0.8,255-1z M255,479
	C131.3,479,31,378.7,31,255S131.3,31,255,31s224,100.3,224,224C478.9,378.7,378.7,478.9,255,479z"/>
<path class="st0" d="M379.4,130.6c-6.3-6.2-16.4-6.2-22.6,0L255,232.4L153.2,130.6c-6.1-6.4-16.3-6.5-22.6-0.4
	c-6.4,6.1-6.5,16.3-0.4,22.6c0.1,0.1,0.3,0.3,0.4,0.4L232.4,255L130.6,356.8c-6.4,6.1-6.5,16.3-0.4,22.6c6.1,6.4,16.3,6.5,22.6,0.4
	c0.1-0.1,0.3-0.3,0.4-0.4L255,277.6l101.8,101.8c6.4,6.1,16.5,6,22.6-0.4c6-6.2,6-16,0-22.2L277.6,255l101.8-101.8
	C385.7,146.9,385.7,136.8,379.4,130.6z"/>
</svg>
